<svg width="40" height="40" viewBox="0 0 40 40" fill="none" xmlns="http://www.w3.org/2000/svg">
<path d="M23.1429 27.5334H16.8984V40.0001H23.1429V27.5334Z" fill="#FFD11A"/>
<path d="M23.1429 0H16.8984V12.4667H23.1429V0Z" fill="#FFD11A"/>
<path d="M27.5273 16.8757V23.1201H39.994V16.8757H27.5273Z" fill="#FFD11A"/>
<path d="M0 16.8813L0 23.1257H12.4667V16.8813H0Z" fill="#FFD11A"/>
<path d="M27.5405 23.1014L23.125 27.5168L31.9402 36.332L36.3556 31.9166L27.5405 23.1014Z" fill="#404040"/>
<path d="M8.07169 3.63656L3.65625 8.052L12.4714 16.8672L16.8869 12.4517L8.07169 3.63656Z" fill="#404040"/>
<path d="M23.108 12.4708L27.5234 16.8862L36.3386 8.07105L31.9232 3.65559L23.108 12.4708Z" fill="#404040"/>
<path d="M3.6451 31.9359L8.06055 36.3513L16.8757 27.5361L12.4603 23.1207L3.6451 31.9359Z" fill="#404040"/>
</svg>
