<svg width="179" height="51" viewBox="0 0 179 51" fill="none" xmlns="http://www.w3.org/2000/svg">
<path d="M164.627 16.8635H167.697V21.5745L167.51 23.6604H167.697C168.025 23.1135 168.494 22.6682 169.104 22.3245C169.729 21.9651 170.424 21.7854 171.189 21.7854C172.674 21.7854 173.768 22.2229 174.471 23.0979C175.189 23.9729 175.549 25.1682 175.549 26.6838V33.6448H172.479V27.0588C172.479 26.262 172.291 25.6604 171.916 25.2542C171.541 24.8323 171.018 24.6213 170.346 24.6213C169.924 24.6213 169.549 24.7151 169.221 24.9026C168.893 25.0745 168.611 25.3167 168.377 25.6292C168.158 25.9417 167.986 26.3088 167.861 26.7307C167.752 27.137 167.697 27.5745 167.697 28.0432V33.6448H164.627V16.8635Z" fill="white"/>
<path d="M163.457 30.7151C162.957 31.6838 162.254 32.4807 161.348 33.1057C160.457 33.7151 159.34 34.0198 157.996 34.0198C157.105 34.0198 156.285 33.8713 155.535 33.5745C154.801 33.262 154.16 32.8323 153.613 32.2854C153.082 31.7385 152.66 31.0979 152.348 30.3635C152.051 29.6135 151.902 28.7932 151.902 27.9026C151.902 27.012 152.051 26.1917 152.348 25.4417C152.66 24.6917 153.082 24.051 153.613 23.5198C154.16 22.9729 154.801 22.551 155.535 22.2542C156.285 21.9417 157.105 21.7854 157.996 21.7854C159.324 21.7854 160.441 22.0901 161.348 22.6995C162.254 23.3088 162.918 24.0979 163.34 25.0667L160.527 26.2385C160.262 25.7073 159.918 25.3088 159.496 25.0432C159.09 24.762 158.574 24.6213 157.949 24.6213C157.543 24.6213 157.16 24.6995 156.801 24.8557C156.441 25.012 156.121 25.2307 155.84 25.512C155.574 25.7932 155.363 26.137 155.207 26.5432C155.051 26.9495 154.973 27.4026 154.973 27.9026C154.973 28.4026 155.051 28.8557 155.207 29.262C155.363 29.6682 155.574 30.012 155.84 30.2932C156.121 30.5745 156.441 30.7932 156.801 30.9495C157.16 31.1057 157.543 31.1838 157.949 31.1838C158.59 31.1838 159.129 31.0432 159.566 30.762C160.02 30.4651 160.379 30.0432 160.645 29.4963L163.457 30.7151Z" fill="white"/>
<path d="M151 30.8792C150.469 31.8167 149.75 32.5745 148.844 33.1526C147.953 33.7307 146.859 34.0198 145.563 34.0198C144.688 34.0198 143.875 33.8713 143.125 33.5745C142.391 33.262 141.75 32.8323 141.203 32.2854C140.656 31.7385 140.227 31.0979 139.914 30.3635C139.617 29.6135 139.469 28.7932 139.469 27.9026C139.469 27.0745 139.617 26.2932 139.914 25.5588C140.211 24.8088 140.625 24.1604 141.156 23.6135C141.688 23.051 142.313 22.6057 143.031 22.2776C143.766 21.9495 144.57 21.7854 145.445 21.7854C146.367 21.7854 147.188 21.9417 147.906 22.2542C148.625 22.551 149.227 22.9729 149.711 23.5198C150.195 24.051 150.563 24.6838 150.813 25.4182C151.063 26.1526 151.188 26.9495 151.188 27.8088C151.188 27.9182 151.188 28.012 151.188 28.0901C151.172 28.1838 151.164 28.2698 151.164 28.3479C151.148 28.426 151.141 28.512 151.141 28.6057H142.492C142.555 29.0745 142.68 29.4807 142.867 29.8245C143.07 30.1526 143.313 30.4338 143.594 30.6682C143.891 30.887 144.211 31.051 144.555 31.1604C144.898 31.2542 145.25 31.301 145.609 31.301C146.313 31.301 146.891 31.1448 147.344 30.8323C147.813 30.5042 148.18 30.0979 148.445 29.6135L151 30.8792ZM148.211 26.426C148.195 26.2229 148.125 25.9963 148 25.7463C147.891 25.4963 147.719 25.262 147.484 25.0432C147.266 24.8245 146.984 24.6448 146.641 24.5042C146.313 24.3635 145.914 24.2932 145.445 24.2932C144.789 24.2932 144.211 24.4807 143.711 24.8557C143.211 25.2307 142.859 25.7542 142.656 26.426H148.211Z" fill="white"/>
<path d="M132.979 33.6448V19.8635H128.291V16.8635H140.83V19.8635H136.143V33.6448H132.979Z" fill="white"/>
<path d="M127.596 30.8792C127.064 31.8167 126.346 32.5745 125.439 33.1526C124.549 33.7307 123.455 34.0198 122.158 34.0198C121.283 34.0198 120.471 33.8713 119.721 33.5745C118.986 33.262 118.346 32.8323 117.799 32.2854C117.252 31.7385 116.822 31.0979 116.51 30.3635C116.213 29.6135 116.064 28.7932 116.064 27.9026C116.064 27.0745 116.213 26.2932 116.51 25.5588C116.807 24.8088 117.221 24.1604 117.752 23.6135C118.283 23.051 118.908 22.6057 119.627 22.2776C120.361 21.9495 121.166 21.7854 122.041 21.7854C122.963 21.7854 123.783 21.9417 124.502 22.2542C125.221 22.551 125.822 22.9729 126.307 23.5198C126.791 24.051 127.158 24.6838 127.408 25.4182C127.658 26.1526 127.783 26.9495 127.783 27.8088C127.783 27.9182 127.783 28.012 127.783 28.0901C127.768 28.1838 127.76 28.2698 127.76 28.3479C127.744 28.426 127.736 28.512 127.736 28.6057H119.088C119.15 29.0745 119.275 29.4807 119.463 29.8245C119.666 30.1526 119.908 30.4338 120.189 30.6682C120.486 30.887 120.807 31.051 121.15 31.1604C121.494 31.2542 121.846 31.301 122.205 31.301C122.908 31.301 123.486 31.1448 123.939 30.8323C124.408 30.5042 124.775 30.0979 125.041 29.6135L127.596 30.8792ZM124.807 26.426C124.791 26.2229 124.721 25.9963 124.596 25.7463C124.486 25.4963 124.314 25.262 124.08 25.0432C123.861 24.8245 123.58 24.6448 123.236 24.5042C122.908 24.3635 122.51 24.2932 122.041 24.2932C121.385 24.2932 120.807 24.4807 120.307 24.8557C119.807 25.2307 119.455 25.7542 119.252 26.426H124.807Z" fill="white"/>
<path d="M108.588 22.1604H111.471V23.7542H111.658C111.799 23.4729 111.986 23.2151 112.221 22.9807C112.455 22.7463 112.713 22.5432 112.994 22.3713C113.291 22.1995 113.604 22.0667 113.932 21.9729C114.275 21.8792 114.611 21.8323 114.939 21.8323C115.346 21.8323 115.689 21.8713 115.971 21.9495C116.268 22.0276 116.518 22.1291 116.721 22.2541L115.9 25.0432C115.713 24.9495 115.502 24.8791 115.268 24.8323C115.049 24.7698 114.775 24.7385 114.447 24.7385C114.025 24.7385 113.643 24.8245 113.299 24.9963C112.955 25.1526 112.658 25.3791 112.408 25.676C112.174 25.9729 111.986 26.3245 111.846 26.7307C111.721 27.1213 111.658 27.551 111.658 28.0198V33.6448H108.588V22.1604Z" fill="white"/>
<path d="M103.779 32.1448H103.592C103.232 32.7229 102.748 33.1838 102.139 33.5276C101.529 33.8557 100.834 34.0198 100.053 34.0198C98.5996 34.0198 97.5137 33.5745 96.7949 32.6838C96.0918 31.7932 95.7402 30.6057 95.7402 29.1213V22.1604H98.8105V28.7463C98.8105 29.5745 98.9902 30.1917 99.3496 30.5979C99.7246 30.9885 100.264 31.1838 100.967 31.1838C101.389 31.1838 101.756 31.0979 102.068 30.926C102.396 30.7385 102.67 30.4963 102.889 30.1995C103.123 29.887 103.295 29.5276 103.404 29.1213C103.529 28.6995 103.592 28.2542 103.592 27.7854V22.1604H106.662V33.6448H103.779V32.1448Z" fill="white"/>
<path d="M88.3945 24.7854H86.3789V22.1604H88.3945V18.6448H91.4648V22.1604H94.2773V24.7854H91.4648V29.2385C91.4648 29.5042 91.4883 29.7542 91.5352 29.9885C91.5977 30.2073 91.707 30.3948 91.8633 30.551C92.082 30.801 92.3945 30.926 92.8008 30.926C93.0664 30.926 93.2773 30.9026 93.4336 30.8557C93.5898 30.7932 93.7383 30.7151 93.8789 30.6213L94.7461 33.3167C94.3867 33.4885 93.9961 33.6135 93.5742 33.6917C93.168 33.7854 92.7148 33.8323 92.2148 33.8323C91.6367 33.8323 91.1133 33.7463 90.6445 33.5745C90.1914 33.387 89.8086 33.137 89.4961 32.8245C88.7617 32.1213 88.3945 31.1213 88.3945 29.8245V24.7854Z" fill="white"/>
<path d="M82.2051 32.1448H82.0176C81.6582 32.7229 81.1738 33.1838 80.5645 33.5276C79.9551 33.8557 79.2598 34.0198 78.4785 34.0198C77.0254 34.0198 75.9395 33.5745 75.2207 32.6838C74.5176 31.7932 74.166 30.6057 74.166 29.1213V22.1604H77.2363V28.7463C77.2363 29.5745 77.416 30.1917 77.7754 30.5979C78.1504 30.9885 78.6895 31.1838 79.3926 31.1838C79.8145 31.1838 80.1816 31.0979 80.4941 30.926C80.8223 30.7385 81.0957 30.4963 81.3145 30.1995C81.5488 29.887 81.7207 29.5276 81.8301 29.1213C81.9551 28.6995 82.0176 28.2542 82.0176 27.7854V22.1604H85.0879V33.6448H82.2051V32.1448Z" fill="white"/>
<path d="M62.7266 16.8635H73.3672V19.8635H65.8906V23.9416H72.6172V26.9417H65.8906V33.6448H62.7266V16.8635Z" fill="white"/>
<path d="M33.332 50.4999V42.1666C37.9431 42.1666 41.6654 38.4444 41.6654 33.8333H49.9987C49.9987 43.0555 42.5265 50.4999 33.332 50.4999Z" fill="#FFD11A"/>
<path d="M33.3327 50.4999V42.1666C28.7216 42.1666 24.9993 38.4444 24.9993 33.8333H16.666C16.666 43.0555 24.1382 50.4999 33.3327 50.4999Z" fill="#FFD11A"/>
<path d="M0 33.8335H8.33333C8.33333 38.4446 12.0556 42.1668 16.6667 42.1668V50.5002C7.47222 50.5002 0 43.0557 0 33.8335Z" fill="#FFD11A"/>
<path d="M0 33.8334H8.33333C8.33333 29.2223 12.0556 25.5001 16.6667 25.5001V17.1667C7.47222 17.1667 0 24.639 0 33.8334Z" fill="#FFD11A"/>
<path d="M16.6667 0.5V8.83333C12.0556 8.83333 8.33333 12.5556 8.33333 17.1667H0C0 7.97222 7.47222 0.5 16.6667 0.5Z" fill="#FFD11A"/>
<path d="M16.666 0.5V8.83333C21.2771 8.83333 24.9993 12.5556 24.9993 17.1667H33.3327C33.3327 7.97222 25.8605 0.5 16.666 0.5Z" fill="#FFD11A"/>
<path d="M50.0007 17.1667H41.6673C41.6673 12.5556 37.9451 8.83333 33.334 8.83333V0.5C42.5284 0.5 50.0007 7.97222 50.0007 17.1667Z" fill="#FFD11A"/>
<path d="M50.0007 17.1667H41.6673C41.6673 21.7779 37.9451 25.5001 33.334 25.5001V33.8334C42.5284 33.8334 50.0007 26.389 50.0007 17.1667Z" fill="#FFD11A"/>
</svg>
