<svg width="181" height="44" viewBox="0 0 181 44" fill="none" xmlns="http://www.w3.org/2000/svg">
<rect x="1.16602" y="0.5" width="179" height="43" rx="21.5" fill="#141414"/>
<rect x="1.16602" y="0.5" width="179" height="43" rx="21.5" stroke="#262626"/>
<path d="M26.9407 12.9429C27.7134 11.6249 29.6187 11.6249 30.3914 12.9429L32.1172 15.8866C32.3992 16.3676 32.8691 16.709 33.4137 16.8286L36.7467 17.5603C38.2389 17.8879 38.8277 19.7 37.813 20.8421L35.5466 23.3931C35.1763 23.8099 34.9968 24.3624 35.0514 24.9173L35.3855 28.3132C35.535 29.8337 33.9936 30.9536 32.5938 30.3415L29.4673 28.9744C28.9565 28.751 28.3756 28.751 27.8647 28.9744L24.7382 30.3415C23.3384 30.9536 21.797 29.8337 21.9466 28.3132L22.2806 24.9173C22.3352 24.3624 22.1557 23.8099 21.7854 23.3931L19.519 20.8421C18.5044 19.7 19.0931 17.8879 20.5854 17.5603L23.9183 16.8286C24.4629 16.709 24.9328 16.3676 25.2148 15.8866L26.9407 12.9429Z" fill="#FFCE22"/>
<path d="M57.9407 12.9429C58.7134 11.6249 60.6187 11.6249 61.3914 12.9429L63.1172 15.8866C63.3992 16.3676 63.8691 16.709 64.4137 16.8286L67.7467 17.5603C69.2389 17.8879 69.8277 19.7 68.813 20.8421L66.5466 23.3931C66.1763 23.8099 65.9968 24.3624 66.0514 24.9173L66.3855 28.3132C66.535 29.8337 64.9936 30.9536 63.5938 30.3415L60.4673 28.9744C59.9565 28.751 59.3756 28.751 58.8647 28.9744L55.7382 30.3415C54.3384 30.9536 52.797 29.8337 52.9466 28.3132L53.2806 24.9173C53.3352 24.3624 53.1557 23.8099 52.7854 23.3931L50.519 20.8421C49.5044 19.7 50.0931 17.8879 51.5854 17.5603L54.9183 16.8286C55.4629 16.709 55.9328 16.3676 56.2148 15.8866L57.9407 12.9429Z" fill="#FFCE22"/>
<path d="M88.9407 12.9429C89.7134 11.6249 91.6187 11.6249 92.3914 12.9429L94.1172 15.8866C94.3992 16.3676 94.8691 16.709 95.4137 16.8286L98.7467 17.5603C100.239 17.8879 100.828 19.7 99.813 20.8421L97.5466 23.3931C97.1763 23.8099 96.9968 24.3624 97.0514 24.9173L97.3855 28.3132C97.535 29.8337 95.9936 30.9536 94.5938 30.3415L91.4673 28.9744C90.9565 28.751 90.3756 28.751 89.8647 28.9744L86.7382 30.3415C85.3384 30.9536 83.797 29.8337 83.9466 28.3132L84.2806 24.9173C84.3352 24.3624 84.1557 23.8099 83.7854 23.3931L81.519 20.8421C80.5044 19.7 81.0931 17.8879 82.5854 17.5603L85.9183 16.8286C86.4629 16.709 86.9328 16.3676 87.2148 15.8866L88.9407 12.9429Z" fill="#FFCE22"/>
<path d="M119.941 12.9429C120.713 11.6249 122.619 11.6249 123.391 12.9429L125.117 15.8866C125.399 16.3676 125.869 16.709 126.414 16.8286L129.747 17.5603C131.239 17.8879 131.828 19.7 130.813 20.8421L128.547 23.3931C128.176 23.8099 127.997 24.3624 128.051 24.9173L128.385 28.3132C128.535 29.8337 126.994 30.9536 125.594 30.3415L122.467 28.9744C121.956 28.751 121.376 28.751 120.865 28.9744L117.738 30.3415C116.338 30.9536 114.797 29.8337 114.947 28.3132L115.281 24.9173C115.335 24.3624 115.156 23.8099 114.785 23.3931L112.519 20.8421C111.504 19.7 112.093 17.8879 113.585 17.5603L116.918 16.8286C117.463 16.709 117.933 16.3676 118.215 15.8866L119.941 12.9429Z" fill="#FFCE22"/>
<path d="M150.941 12.9429C151.713 11.6249 153.619 11.6249 154.391 12.9429L156.117 15.8866C156.399 16.3676 156.869 16.709 157.414 16.8286L160.747 17.5603C162.239 17.8879 162.828 19.7 161.813 20.8421L159.547 23.3931C159.176 23.8099 158.997 24.3624 159.051 24.9173L159.385 28.3132C159.535 29.8337 157.994 30.9536 156.594 30.3415L153.467 28.9744C152.956 28.751 152.376 28.751 151.865 28.9744L148.738 30.3415C147.338 30.9536 145.797 29.8337 145.947 28.3132L146.281 24.9173C146.335 24.3624 146.156 23.8099 145.785 23.3931L143.519 20.8421C142.504 19.7 143.093 17.8879 144.585 17.5603L147.918 16.8286C148.463 16.709 148.933 16.3676 149.215 15.8866L150.941 12.9429Z" fill="#FFCE22"/>
</svg>
