<svg width="88" height="20" viewBox="0 0 88 20" fill="none" xmlns="http://www.w3.org/2000/svg">
<path d="M17.5475 5.98396C17.5552 6.15996 17.5552 6.32796 17.5552 6.50396C17.563 11.84 13.6426 18 6.47319 18C4.35865 18 2.2827 17.368 0.5 16.184C0.808692 16.224 1.11738 16.24 1.42608 16.24C3.1779 16.24 4.88343 15.632 6.26483 14.504C4.59789 14.472 3.1316 13.344 2.62226 11.696C3.20877 11.816 3.81072 11.792 4.3818 11.624C2.56824 11.256 1.26401 9.59997 1.2563 7.67197C1.2563 7.65597 1.2563 7.63997 1.2563 7.62397C1.79651 7.93597 2.40617 8.11197 3.02356 8.12797C1.31803 6.94396 0.78554 4.58396 1.81966 2.73595C3.80301 5.26396 6.72015 6.79196 9.85337 6.95996C9.53696 5.55996 9.96913 4.08796 10.9801 3.09595C12.5467 1.56795 15.0162 1.64795 16.498 3.27195C17.37 3.09595 18.2112 2.75995 18.9752 2.28795C18.682 3.22395 18.0723 4.01596 17.262 4.51996C18.0337 4.42396 18.79 4.20796 19.5 3.88795C18.9752 4.70396 18.3115 5.40796 17.5475 5.98396Z" fill="white"/>
<path d="M45.2812 10.1897C45.2812 13.332 42.7558 15.8793 39.6407 15.8793C36.5256 15.8793 34 13.3314 34 10.1897C34 7.04806 36.5254 4.5 39.6407 4.5C42.756 4.5 45.2812 7.04749 45.2812 10.1897Z" fill="white"/>
<path d="M51.4688 10.1897C51.4688 13.1475 50.2061 15.5462 48.6485 15.5462C47.0908 15.5462 45.8281 13.1475 45.8281 10.1897C45.8281 7.23195 47.0906 4.83325 48.6483 4.83325C50.2059 4.83325 51.4686 7.23118 51.4686 10.1897" fill="white"/>
<path d="M53.9993 10.1897C53.9993 12.8391 53.5553 14.9882 53.0074 14.9882C52.4595 14.9882 52.0156 12.8397 52.0156 10.1897C52.0156 7.53965 52.4597 5.39111 53.0074 5.39111C53.5551 5.39111 53.9993 7.53946 53.9993 10.1897Z" fill="white"/>
<path d="M85.3878 1.33325H70.6135C70.2742 1.33325 69.9487 1.46806 69.7088 1.70802C69.4688 1.94798 69.334 2.27343 69.334 2.61279V17.387C69.334 17.7264 69.4688 18.0519 69.7088 18.2918C69.9487 18.5318 70.2742 18.6666 70.6135 18.6666H85.3878C85.7271 18.6666 86.0526 18.5318 86.2926 18.2918C86.5325 18.0519 86.6673 17.7264 86.6673 17.387V2.61279C86.6673 2.27343 86.5325 1.94798 86.2926 1.70802C86.0526 1.46806 85.7271 1.33325 85.3878 1.33325ZM74.5003 16.0991H71.8943V7.82122H74.5003V16.0991ZM73.1955 6.67409C72.8999 6.67242 72.6114 6.58323 72.3664 6.41776C72.1214 6.25229 71.931 6.01797 71.8191 5.74436C71.7071 5.47075 71.6788 5.17012 71.7376 4.88041C71.7963 4.5907 71.9396 4.3249 72.1493 4.11654C72.359 3.90818 72.6257 3.76661 72.9158 3.7097C73.2059 3.65278 73.5063 3.68307 73.7792 3.79674C74.0521 3.91041 74.2852 4.10237 74.4491 4.34839C74.613 4.59442 74.7003 4.88347 74.7001 5.17909C74.7029 5.377 74.6658 5.57345 74.591 5.75672C74.5163 5.94 74.4054 6.10635 74.265 6.24586C74.1246 6.38537 73.9575 6.49518 73.7738 6.56875C73.59 6.64232 73.3934 6.67814 73.1955 6.67409ZM84.1058 16.1063H81.501V11.584C81.501 10.2503 80.9341 9.83862 80.2022 9.83862C79.4294 9.83862 78.6711 10.4212 78.6711 11.6177V16.1063H76.0651V7.82723H78.5712V8.97436H78.6049C78.8565 8.4652 79.7376 7.59492 81.0821 7.59492C82.5362 7.59492 84.107 8.45797 84.107 10.9858L84.1058 16.1063Z" fill="white"/>
</svg>
