<svg width="53" height="53" viewBox="0 0 53 53" fill="none" xmlns="http://www.w3.org/2000/svg">
<rect x="0.333984" y="0.5" width="52" height="52" rx="26" fill="#FFD11A"/>
<path fill-rule="evenodd" clip-rule="evenodd" d="M22.584 18.25L33.834 18.25C34.0329 18.25 34.2237 18.329 34.3643 18.4697C34.505 18.6103 34.584 18.8011 34.584 19V30.25C34.584 30.6642 34.2482 31 33.834 31C33.4198 31 33.084 30.6642 33.084 30.25V20.8107L19.3643 34.5303C19.0714 34.8232 18.5965 34.8232 18.3037 34.5303C18.0108 34.2374 18.0108 33.7626 18.3037 33.4697L32.0233 19.75L22.584 19.75C22.1698 19.75 21.834 19.4142 21.834 19C21.834 18.5858 22.1698 18.25 22.584 18.25Z" fill="#141414"/>
</svg>
