<svg xmlns="http://www.w3.org/2000/svg" width="45" height="45.759" viewBox="0 0 45 45.759">
  <g id="_2iYlsWj28b9x8fV1f5tAzFpppPg" data-name="2iYlsWj28b9x8fV1f5tAzFpppPg" transform="translate(-126.677 -127.526)">
    <path id="Path_4" data-name="Path 4" d="M13.629,0h.818L14.9.055l.472.091.491.145.454.182.309.145.436.254.254.182.236.182.254.218.4.4.164.2.236.309.2.309.2.345.036.055.382-.218.436-.2.382-.145.436-.127L21.1,2.29l.527-.073L21.97,2.2h.291l.563.036.472.073.4.091.363.109.454.182.327.145.418.236.273.182.291.218.2.164.236.218L26.6,4.2l.164.2.182.236.291.436.218.4.164.345.164.436.127.436.109.527.055.436.018.563-.018.418-.091.654-.109.454v.091l.345.236.291.218.236.2.291.254.127.145.182.182.164.2.145.182.254.345.218.363.236.436.2.454.164.454.145.545.073.382L31,14.81l.036.509v.436l-.054.654-.091.509-.109.436L30.6,17.9l-.2.472-.182.345-.109.2-.145.236-.218.309-.182.236-.218.254-.218.236-.218.218-.145.127-.236.2-.218.164-.291.2-.545.327-.418.2-.509.2-.491.145-.491.109-.491.073-.4.036h-.654l-.473-.036-.036.091-.182.291-.164.254-.109.2-.182.309-.254.454-.182.345-.164.345-.145.291-.327.727L21.589,26l-.254.691-.218.672-.127.418-.2.745-.2.89-.127.709-.073.454-.073.563-.091.927-.073.345-.091.273-.182.345-.182.254-.109.127-.145.127-.2.164-.236.145L18.663,34l-.254.073-.218.036-.2.018h-5l-.382-.055-.291-.091-.254-.109-.291-.182-.2-.164-.218-.218-.164-.218-.182-.309-.127-.345-.073-.345-.127-1.145-.109-.763-.145-.781-.164-.727-.127-.509-.182-.636L9.795,27l-.218-.636L9.359,25.8,9.05,25.06,8.8,24.515l-.254-.527-.218-.418-.236-.418L7.9,22.824l-.036-.073-.2.018-.491.091-.491.055H5.779l-.563-.073-.509-.109-.491-.145-.509-.2L3.2,22.134,2.817,21.9l-.309-.218-.291-.236-.145-.127-.182-.164-.236-.236-.127-.145-.164-.2-.182-.236-.254-.382-.218-.382-.218-.454-.164-.436L.2,18.263l-.109-.491-.073-.527L0,17.028v-.781L.055,15.7l.109-.563.145-.509.182-.472.164-.363.2-.363.236-.363.182-.254.236-.291.073-.091-.018-.236-.073-.545-.018-.218v-.672l.055-.563L1.6,9.759,1.708,9.3l.109-.363.2-.509.218-.454.2-.363.182-.273L2.8,7.087l.127-.164.254-.309.127-.145h.036V6.433H3.38l.036-.073h.036V6.324L3.6,6.2l.127-.127.2-.164.327-.254.273-.182.363-.218.418-.218.472-.2.545-.182.545-.127.6-.091.254-.018H8.6l.073-.327.2-.6.2-.436.2-.363.254-.382L9.7,2.072l.109-.145h.036l.036-.073.273-.291.236-.218.2-.164.273-.2L11.14.8l.327-.182L11.921.4l.454-.164.509-.127L13.3.036Zm.109,1.563-.309.036-.363.073-.363.109-.273.109-.291.145-.254.145-.254.182-.254.218-.182.164-.036.073-.055.018-.127.145-.254.345-.218.363L10.358,4l-.145.4-.091.382-.055.327-.036.345-.073.2L9.868,5.8l-.036.073-.073.036-.182.109-.2.055h-.2L8.6,6l-.273-.018H7.941l-.454.036-.436.073-.4.109-.363.127-.382.164-.4.218-.218.145L5.088,7l-.254.2-.218.2-.254.254-.164.2-.218.273-.127.2L3.689,8.6,3.525,8.9l-.2.491L3.2,9.813l-.091.436-.036.254-.018.236v.691l.055.472.091.436.109.345.145.363.145.309.182.309.145.218.218.291.218.254.363.363.2.164.309.236.291.182.327.182.291.145.218.127.127.145.109.218.036.236-.036.218-.109.218-.145.164-.218.109-.109.036H5.688l-.254-.091-.345-.164-.418-.236-.382-.254L4,16.21l-.2-.164-.236-.218-.436-.436-.164-.2-.254-.327L2.471,14.5l-.164-.273-.036-.055H2.235l-.145.291-.127.273-.109.273-.109.327-.109.472-.055.491v.672l.073.545.127.509.145.4.145.327.182.327L2.4,19.3l.145.2.164.2.2.218.254.254.254.2.218.164.382.236.382.182.2.091.436.145.418.091.382.055.254.018h.454l.382-.036.418-.073.4-.109.363-.127.527-.254.291-.182.309-.218.254-.218.236-.218v-.036l.055-.018.127-.145.236-.291.236-.363.127-.218.2-.436.218-.654.091-.218.127-.164.2-.127.182-.055.145-.018.236.036.218.109.273.182.382.218.418.2.472.182.472.127.454.091.418.055.218.018h.6l.509-.055.509-.091.454-.127.363-.127.454-.2.345-.182.291-.164.145-.055.236-.018.2.036.218.109.145.145.164.273.182.327.218.309.2.254.218.236.254.254.2.164.254.2.273.182.4.218.345.164.472.164.436.109.472.073.164.018h.8l.436-.055.436-.091.363-.109.382-.145.454-.218.363-.218.291-.218.254-.2.145-.145.145-.127.036-.073h.036l.127-.145.236-.291.164-.236.218-.363.145-.291.164-.382.145-.454.109-.509.055-.509V15.21L29.4,14.72l-.091-.454-.145-.472-.145-.363-.164-.345-.218-.363-.218-.309-.2-.236-.127-.145-.345-.345-.2-.164-.273-.2-.109-.055-.127.2-.145.2-.145.182-.2.236-.382.382-.2.164-.309.236-.273.182-.309.182-.309.164-.436.182-.436.145-.454.109-.4.073-.582.055h-.254l-.182-.036-.218-.109L21.7,13.72l-.127-.2-.073-.2v-.254l.073-.236.145-.2.145-.109.145-.073.218-.036.509-.036.363-.055.436-.109.436-.164.291-.145.291-.164.236-.164.236-.182.236-.218.236-.236.145-.182.2-.273.2-.345.164-.345.127-.345.091-.345.073-.4.018-.182V7.76l-.073-.509-.109-.418-.145-.4L26,6.051l-.218-.363L25.569,5.4l-.2-.236L25.1,4.888l-.2-.164-.273-.2-.327-.2-.309-.164-.363-.145-.345-.109-.436-.091-.309-.036h-.781l-.4.055-.454.109-.4.145-.273.127-.309.164-.218.145-.2.145-.309.254-.2.127-.164.055H18.5l-.182-.073-.164-.109-.127-.145L17.9,4.489l-.145-.436-.236-.491-.182-.291-.182-.236-.164-.182-.127-.145-.236-.218-.291-.218-.291-.182-.382-.2-.327-.127-.382-.109-.418-.073-.164-.018ZM12.085,19.135l-.291.582-.182.291.018.091.164.291.109.2.327.618.327.636.327.654.2.418.182.382H13.3l.073-1.181.091-1.072.109-.981.036-.345-.164-.055-.4-.127-.382-.145-.363-.164Zm6.651.091-.127.055-.036.055-.164.745-.145.781-.127.8-.091.745-.036.382h.036l.236-.509.545-1.09.086-.159.132-.241.273-.509.127-.218-.018-.073-.164-.2-.182-.218-.254-.345Zm-2,.618-.636.073-.309.018h-.618l-.036.164-.127,1.272-.091,1.163-.073,1.145-.055,1.145-.018.527-.036,1.817-.036.218-.109.218-.164.164-.236.109-.164.036-.236-.018-.2-.073-.164-.127-.109-.127-.127-.273-.218-.6-.109-.309-.345-.872-.309-.745L11.7,23.624l-.145-.291-.254-.527-.345-.691-.182-.345-.2-.363-.036-.073-.073.018-.2.164-.345.254-.582.363.036.109.236.418.218.4.363.727.273.6.218.509.273.691.291.818.218.691.236.854.2.836.164.818.127.8.109.872.073.654.055.182.109.182.164.145.182.091.164.036h4.925l.218-.055.182-.109.109-.091.091-.127.073-.218.055-.436.073-.691.127-.909.145-.8.2-.89.2-.763.273-.89.236-.691.273-.709.2-.472.218-.491.218-.472.145-.291L21.3,22.9l.236-.418.254-.436.164-.273v-.036l-.363-.164-.291-.145-.309-.164L20.7,21.08h-.055l-.218.418-.454.872-.164.309-.2.418-.236.491-.273.6-.345.781-.309.745-.2.509-.182.472-.236.636-.127.254-.145.164-.254.127-.164.036-.236-.018-.2-.073-.2-.145-.127-.2-.055-.127-.018-.091-.018-.327V25.1l.036-.909.073-1,.091-.89.109-.854.145-.927.109-.6v-.073Z" transform="matrix(0.819, 0.574, -0.574, 0.819, 146.252, 127.526)" fill="#047235"/>
  </g>
</svg>
