<svg xmlns="http://www.w3.org/2000/svg" xmlns:xlink="http://www.w3.org/1999/xlink" width="24" height="33" viewBox="0 0 24 33">
  <defs>
    <clipPath id="clip-path">
      <rect id="Rectangle_4" data-name="Rectangle 4" width="24" height="33" transform="translate(11 6.775)"/>
    </clipPath>
    <clipPath id="clip-path-2">
      <path id="Path_15" data-name="Path 15" d="M0,0H44.932V44.932H0Z"/>
    </clipPath>
  </defs>
  <g id="cat2" transform="translate(-11 -6.775)" clip-path="url(#clip-path)">
    <g id="Group_28" data-name="Group 28" transform="translate(0 -0.157)" clip-path="url(#clip-path-2)">
      <g id="Group_8" data-name="Group 8" transform="translate(22.46 18.987)">
        <g id="Group_7" data-name="Group 7">
          <path id="Path_7" data-name="Path 7" d="M-.068-29.318v16.945" transform="translate(0.068 29.318)" fill="rgba(0,0,0,0)"/>
          <path id="Path_7_-_Outline" data-name="Path 7 - Outline" d="M-.068-11.373a1,1,0,0,1-1-1V-29.318a1,1,0,0,1,1-1,1,1,0,0,1,1,1v16.945a1,1,0,0,1-1,1Z" transform="translate(0.068 29.318)" fill="#7d9837"/>
        </g>
      </g>
      <g id="Group_11" data-name="Group 11" transform="translate(20.015 9.736)">
        <g id="Group_10" data-name="Group 10">
          <g id="Group_9" data-name="Group 9">
            <path id="Path_8" data-name="Path 8" d="M4.893,4.628A5.213,5.213,0,0,1,2.446,9.257,5.213,5.213,0,0,1,0,4.628,5.213,5.213,0,0,1,2.446,0,5.213,5.213,0,0,1,4.893,4.628Z" fill="rgba(0,0,0,0)"/>
            <path id="Path_8_-_Outline" data-name="Path 8 - Outline" d="M2.446,10.257a1,1,0,0,1-.479-.122A6.231,6.231,0,0,1-1,4.628,6.231,6.231,0,0,1,1.967-.878a1,1,0,0,1,.958,0A6.231,6.231,0,0,1,5.893,4.628a6.231,6.231,0,0,1-2.968,5.506A1,1,0,0,1,2.446,10.257Zm0-9.053A4.454,4.454,0,0,0,1,4.628,4.454,4.454,0,0,0,2.446,8.053,4.454,4.454,0,0,0,3.893,4.628,4.454,4.454,0,0,0,2.446,1.2Z" fill="#7d9837"/>
          </g>
        </g>
      </g>
      <g id="Group_14" data-name="Group 14" transform="translate(25.782 17.486) rotate(30)">
        <g id="Group_13" data-name="Group 13">
          <g id="Group_12" data-name="Group 12">
            <path id="Path_9" data-name="Path 9" d="M4.5,5.692a7.9,7.9,0,0,1-1.455.89,8.915,8.915,0,0,1-3.027.881C.036,7.461,0,5.441,0,5.267A5.4,5.4,0,0,1,.44,2.828,5.307,5.307,0,0,1,2.751.771,6.035,6.035,0,0,1,7.241.207a5.924,5.924,0,0,1-.153,1.768A6.907,6.907,0,0,1,4.5,5.692Z" fill="rgba(0,0,0,0)"/>
            <path id="Path_9_-_Outline" data-name="Path 9 - Outline" d="M.017,8.464a1,1,0,0,1-.991-.876,1,1,0,0,1,0-.222c0-.209-.009-1.068-.015-1.492C-1,5.5-1,5.322-1,5.259A6.287,6.287,0,0,1-.451,2.372,6.327,6.327,0,0,1,2.275-.108,7.274,7.274,0,0,1,5.725-1a6.6,6.6,0,0,1,1.787.244,1,1,0,0,1,.728.9A6.92,6.92,0,0,1,8.06,2.21,7.9,7.9,0,0,1,5.13,6.467,8.864,8.864,0,0,1,3.493,7.476a9.868,9.868,0,0,1-3.352.98,1.01,1.01,0,0,1-.124.008ZM5.725,1a5.269,5.269,0,0,0-2.5.651,4.526,4.526,0,0,0-1.9,1.632A4.6,4.6,0,0,0,1,5.275c0,.046,0,.313.007.571,0,.133,0,.279.006.426A7.338,7.338,0,0,0,2.6,5.688a7.058,7.058,0,0,0,1.272-.772A5.972,5.972,0,0,0,6.116,1.738a4.812,4.812,0,0,0,.117-.711A4.709,4.709,0,0,0,5.725,1Z" fill="#7d9837"/>
          </g>
        </g>
      </g>
      <g id="Group_17" data-name="Group 17" transform="translate(12.875 21.112) rotate(-30)">
        <g id="Group_16" data-name="Group 16">
          <g id="Group_15" data-name="Group 15">
            <path id="Path_10" data-name="Path 10" d="M2.753,5.692a7.9,7.9,0,0,0,1.455.89,8.915,8.915,0,0,0,3.027.881c-.018,0,.019-2.023.018-2.2a5.4,5.4,0,0,0-.44-2.439A5.307,5.307,0,0,0,4.5.771,6.035,6.035,0,0,0,.012.207,5.925,5.925,0,0,0,.165,1.974,6.907,6.907,0,0,0,2.753,5.692Z" fill="rgba(0,0,0,0)"/>
            <path id="Path_10_-_Outline" data-name="Path 10 - Outline" d="M7.236,8.464a1.009,1.009,0,0,1-.124-.008,9.869,9.869,0,0,1-3.352-.98A8.864,8.864,0,0,1,2.123,6.468,7.9,7.9,0,0,1-.806,2.211,6.92,6.92,0,0,1-.986.145a1,1,0,0,1,.728-.9A6.6,6.6,0,0,1,1.528-1a7.274,7.274,0,0,1,3.45.892A6.327,6.327,0,0,1,7.7,2.372a6.286,6.286,0,0,1,.549,2.886c0,.063,0,.245-.007.616-.006.424-.018,1.282-.015,1.492a1,1,0,0,1-.994,1.1ZM1.02,1.027a4.818,4.818,0,0,0,.117.711A5.972,5.972,0,0,0,3.384,4.915a7.058,7.058,0,0,0,1.272.773,7.338,7.338,0,0,0,1.584.584c0-.147,0-.293.006-.426,0-.258.008-.524.007-.571a4.6,4.6,0,0,0-.33-1.991,4.525,4.525,0,0,0-1.9-1.632A5.269,5.269,0,0,0,1.528,1a4.708,4.708,0,0,0-.508.027Z" fill="#7d9837"/>
          </g>
        </g>
      </g>
      <g id="Group_20" data-name="Group 20" transform="translate(26.8 26.103) rotate(30)">
        <g id="Group_19" data-name="Group 19">
          <g id="Group_18" data-name="Group 18">
            <path id="Path_11" data-name="Path 11" d="M4.5,5.692a7.9,7.9,0,0,1-1.455.89,8.915,8.915,0,0,1-3.027.881C.036,7.461,0,5.441,0,5.267A5.4,5.4,0,0,1,.44,2.828,5.307,5.307,0,0,1,2.751.771,6.035,6.035,0,0,1,7.241.207a5.925,5.925,0,0,1-.154,1.768A6.907,6.907,0,0,1,4.5,5.692Z" fill="rgba(0,0,0,0)"/>
            <path id="Path_11_-_Outline" data-name="Path 11 - Outline" d="M.017,8.464a1,1,0,0,1-.991-.876,1,1,0,0,1,0-.222c0-.209-.009-1.068-.015-1.492C-1,5.5-1,5.322-1,5.259A6.286,6.286,0,0,1-.451,2.372,6.327,6.327,0,0,1,2.275-.108,7.275,7.275,0,0,1,5.725-1a6.6,6.6,0,0,1,1.787.244,1,1,0,0,1,.728.9A6.92,6.92,0,0,1,8.06,2.21,7.9,7.9,0,0,1,5.13,6.467,8.865,8.865,0,0,1,3.493,7.476a9.868,9.868,0,0,1-3.352.98,1.01,1.01,0,0,1-.124.008ZM5.725,1a5.27,5.27,0,0,0-2.5.651,4.525,4.525,0,0,0-1.9,1.632A4.6,4.6,0,0,0,1,5.275c0,.046,0,.313.007.571,0,.133,0,.279.006.426A7.338,7.338,0,0,0,2.6,5.688a7.059,7.059,0,0,0,1.272-.772A5.972,5.972,0,0,0,6.116,1.738a4.818,4.818,0,0,0,.117-.711A4.708,4.708,0,0,0,5.725,1Z" fill="#7d9837"/>
          </g>
        </g>
      </g>
      <g id="Group_23" data-name="Group 23" transform="translate(12.853 29.715) rotate(-30)">
        <g id="Group_22" data-name="Group 22">
          <g id="Group_21" data-name="Group 21">
            <path id="Path_12" data-name="Path 12" d="M2.753,5.692a7.9,7.9,0,0,0,1.455.89,8.915,8.915,0,0,0,3.027.881c-.018,0,.019-2.023.018-2.2a5.4,5.4,0,0,0-.44-2.439A5.307,5.307,0,0,0,4.5.771,6.035,6.035,0,0,0,.012.207,5.925,5.925,0,0,0,.165,1.974,6.907,6.907,0,0,0,2.753,5.692Z" fill="rgba(0,0,0,0)"/>
            <path id="Path_12_-_Outline" data-name="Path 12 - Outline" d="M7.236,8.463a1.009,1.009,0,0,1-.124-.008,9.869,9.869,0,0,1-3.352-.98A8.865,8.865,0,0,1,2.123,6.468,7.9,7.9,0,0,1-.806,2.211,6.92,6.92,0,0,1-.986.145a1,1,0,0,1,.728-.9A6.6,6.6,0,0,1,1.528-1a7.275,7.275,0,0,1,3.45.892A6.327,6.327,0,0,1,7.7,2.372a6.286,6.286,0,0,1,.549,2.886c0,.063,0,.245-.007.616-.006.424-.018,1.282-.015,1.491a1,1,0,0,1-.994,1.1ZM1.02,1.027a4.818,4.818,0,0,0,.117.711A5.972,5.972,0,0,0,3.384,4.915a7.058,7.058,0,0,0,1.272.773,7.336,7.336,0,0,0,1.584.584c0-.147,0-.293.006-.426,0-.258.008-.524.007-.571a4.6,4.6,0,0,0-.33-1.992,4.525,4.525,0,0,0-1.9-1.632A5.269,5.269,0,0,0,1.528,1a4.708,4.708,0,0,0-.508.027Z" fill="#7d9837"/>
          </g>
        </g>
      </g>
    </g>
  </g>
</svg>
