<svg xmlns="http://www.w3.org/2000/svg" width="25.776" height="36" viewBox="0 0 25.776 36">
  <path id="cat4" d="M6.035,38.4H17.59v7.565H6.035Zm8.98,2.575H8.61v2.415h6.405Zm5.828,15.355H.038C-1.483,56.294-.961,43.7-1,42.179V40.465a10.482,10.482,0,0,1,6.962-9.873l.073-.023,1-5.25H9.61l-1,6.428-.579.16a8.9,8.9,0,0,0-6.457,8.546c0,.015,0,.03,0,.045v1.678c.033.653-.313,11.124.338,11.157h19.8c.666,0,.336-8.209.338-8.875V40.5a8.96,8.96,0,0,0-6.411-8.575l-.063-.016-.561-.168-1-6.413H16.59l1,5.257a10.681,10.681,0,0,1,4.916,3.6l.019.027a10.388,10.388,0,0,1,2.1,6.287c0,.009,0-.008,0,0h0v1.68c0,1.536.549,14.157-.988,14.159H20.843Zm-15.8-36H18.585V27.9H5.04Zm10.97,2.575h-8.4v2.415h8.4Z" transform="translate(1.056 -20.333)" fill="#ebd328"/>
</svg>
