<svg xmlns="http://www.w3.org/2000/svg" width="29.093" height="30.778" viewBox="0 0 29.093 30.778">
  <path id="snow-flake" d="M3,8.944l4.861,2.778M28,22.833l-4.861-2.778M15.5,15.889,7.861,11.722M15.5,15.889,7.861,20.056M15.5,15.889V6.167m0,9.722v9.028m0-9.028,7.639,4.167M15.5,15.889l7.639-4.167M15.5,2V6.167m0,23.611V24.917M28,8.944l-4.861,2.778M3,22.833l4.861-2.778m0-8.333L3,13.111m4.861-1.389L7.167,6.861m.694,13.194L3,18.667m4.861,1.389-.694,4.861M15.5,6.167,12.028,4.778M15.5,6.167l3.472-1.389M15.5,24.917,18.972,27M15.5,24.917,12.028,27m11.111-6.944.694,4.861m-.694-4.861L28,18.667m-4.861-6.944L28,13.111m-4.861-1.389.694-4.861" transform="translate(-0.953 -0.5)" fill="none" stroke="#3b839b" stroke-linecap="round" stroke-linejoin="round" stroke-width="3"/>
</svg>
