<svg xmlns="http://www.w3.org/2000/svg" xmlns:xlink="http://www.w3.org/1999/xlink" width="20" height="36" viewBox="0 0 20 36">
  <defs>
    <clipPath id="clip-path">
      <rect id="Rectangle_4" data-name="Rectangle 4" width="20" height="36" transform="translate(13 6.812)"/>
    </clipPath>
    <clipPath id="clip-path-2">
      <path id="Path_15" data-name="Path 15" d="M0,0H45.729V46.041H0Z"/>
    </clipPath>
  </defs>
  <g id="cat6" transform="translate(-13 -6.812)" clip-path="url(#clip-path)">
    <g id="Group_28" data-name="Group 28" transform="translate(-0.142 -0.229)" clip-path="url(#clip-path-2)">
      <g id="Group_2" data-name="Group 2" transform="translate(14.52 16.326)">
        <g id="Group_1" data-name="Group 1" transform="translate(0)">
          <path id="Path_4" data-name="Path 4" d="M0,5.2V0" transform="translate(1.018 1.025)" fill="rgba(0,0,0,0)"/>
          <path id="Path_4_-_Outline" data-name="Path 4 - Outline" d="M.018,6.248A1.021,1.021,0,0,1-1,5.223V.025A1.021,1.021,0,0,1,.018-1,1.021,1.021,0,0,1,1.035.025v5.2A1.021,1.021,0,0,1,.018,6.248Z" transform="translate(1 1)" fill="#c29c1f"/>
        </g>
      </g>
      <g id="Group_4" data-name="Group 4" transform="translate(21.845 7.766)">
        <g id="Group_3" data-name="Group 3" transform="translate(0)">
          <path id="Path_5" data-name="Path 5" d="M0,4.263V0" transform="translate(1.018 1.025)" fill="rgba(0,0,0,0)"/>
          <path id="Path_5_-_Outline" data-name="Path 5 - Outline" d="M.018,5.312A1.021,1.021,0,0,1-1,4.287V.025A1.021,1.021,0,0,1,.018-1,1.021,1.021,0,0,1,1.035.025V4.287A1.021,1.021,0,0,1,.018,5.312Z" transform="translate(1 1)" fill="#c29c1f"/>
        </g>
      </g>
      <g id="Group_6" data-name="Group 6" transform="translate(29.18 16.326)">
        <g id="Group_5" data-name="Group 5" transform="translate(0)">
          <path id="Path_6" data-name="Path 6" d="M0,5.2V0" transform="translate(1.018 1.025)" fill="rgba(0,0,0,0)"/>
          <path id="Path_6_-_Outline" data-name="Path 6 - Outline" d="M.018,6.248A1.021,1.021,0,0,1-1,5.223V.025A1.021,1.021,0,0,1,.018-1,1.021,1.021,0,0,1,1.035.025v5.2A1.021,1.021,0,0,1,.018,6.248Z" transform="translate(1 1)" fill="#c29c1f"/>
        </g>
      </g>
      <g id="Group_8" data-name="Group 8" transform="translate(21.841 22.53)">
        <g id="Group_7" data-name="Group 7">
          <path id="Path_7" data-name="Path 7" d="M-.068-29.318v17.363" transform="translate(1.086 30.343)" fill="rgba(0,0,0,0)"/>
          <path id="Path_7_-_Outline" data-name="Path 7 - Outline" d="M-.05-10.905A1.021,1.021,0,0,1-1.068-11.93V-29.293A1.021,1.021,0,0,1-.05-30.318,1.021,1.021,0,0,1,.967-29.293V-11.93A1.021,1.021,0,0,1-.05-10.905Z" transform="translate(1.068 30.318)" fill="#c29c1f"/>
        </g>
      </g>
      <g id="Group_11" data-name="Group 11" transform="translate(19.349 12.025)">
        <g id="Group_10" data-name="Group 10">
          <g id="Group_9" data-name="Group 9">
            <path id="Path_8" data-name="Path 8" d="M4.98,4.742a5.352,5.352,0,0,1-2.49,4.743A5.352,5.352,0,0,1,0,4.742,5.352,5.352,0,0,1,2.489,0,5.352,5.352,0,0,1,4.98,4.742Z" transform="translate(1.021 1.025)" fill="rgba(0,0,0,0)"/>
            <path id="Path_8_-_Outline" data-name="Path 8 - Outline" d="M2.507,10.535a1.012,1.012,0,0,1-.487-.125A6.4,6.4,0,0,1-1,4.767,6.4,6.4,0,0,1,2.02-.875a1.012,1.012,0,0,1,.975,0A6.4,6.4,0,0,1,6.015,4.767a6.4,6.4,0,0,1-3.021,5.642A1.012,1.012,0,0,1,2.507,10.535Zm0-9.276A4.579,4.579,0,0,0,1.036,4.767a4.579,4.579,0,0,0,1.472,3.51A4.579,4.579,0,0,0,3.98,4.767,4.579,4.579,0,0,0,2.507,1.254Z" transform="translate(1.003 1)" fill="#c29c1f"/>
          </g>
        </g>
      </g>
      <g id="Group_14" data-name="Group 14" transform="translate(21.804 21.312)">
        <g id="Group_13" data-name="Group 13" transform="translate(0)">
          <g id="Group_12" data-name="Group 12">
            <path id="Path_9" data-name="Path 9" d="M4.58,5.832A8.031,8.031,0,0,1,3.1,6.744a9.027,9.027,0,0,1-3.081.9C.037,7.645,0,5.575,0,5.4A5.566,5.566,0,0,1,.448,2.9,5.413,5.413,0,0,1,2.8.79,6.105,6.105,0,0,1,7.37.212a6.11,6.11,0,0,1-.156,1.812A7.078,7.078,0,0,1,4.58,5.832Z" transform="translate(1.025 1.025)" fill="rgba(0,0,0,0)"/>
            <path id="Path_9_-_Outline" data-name="Path 9 - Outline" d="M.035,8.7A1.02,1.02,0,0,1-.973,7.8a1.032,1.032,0,0,1,0-.227c0-.214-.009-1.094-.015-1.529C-1,5.66-1,5.478-1,5.413A6.48,6.48,0,0,1-.441,2.455,6.455,6.455,0,0,1,2.333-.086,7.364,7.364,0,0,1,5.844-1a6.675,6.675,0,0,1,1.819.25A1.023,1.023,0,0,1,8.4.172a7.138,7.138,0,0,1-.183,2.117A8.1,8.1,0,0,1,5.239,6.651,9.011,9.011,0,0,1,3.573,7.685a9.992,9.992,0,0,1-3.411,1A1.021,1.021,0,0,1,.035,8.7ZM5.844,1.049A5.334,5.334,0,0,0,3.3,1.716,4.615,4.615,0,0,0,1.366,3.389,4.742,4.742,0,0,0,1.036,5.43c0,.047,0,.321.007.585,0,.136,0,.286.006.437a7.436,7.436,0,0,0,1.615-.6,7.174,7.174,0,0,0,1.295-.791A6.119,6.119,0,0,0,6.242,1.806a4.962,4.962,0,0,0,.119-.729,4.76,4.76,0,0,0-.517-.028Z" transform="translate(1.007 1)" fill="#c29c1f"/>
          </g>
        </g>
      </g>
      <g id="Group_17" data-name="Group 17" transform="translate(14.508 21.312)">
        <g id="Group_16" data-name="Group 16" transform="translate(0)">
          <g id="Group_15" data-name="Group 15">
            <path id="Path_10" data-name="Path 10" d="M2.8,5.832a8.031,8.031,0,0,0,1.481.912,9.027,9.027,0,0,0,3.081.9c-.018,0,.019-2.073.018-2.254a5.566,5.566,0,0,0-.448-2.5A5.413,5.413,0,0,0,4.58.79,6.105,6.105,0,0,0,.012.212,6.111,6.111,0,0,0,.168,2.023,7.078,7.078,0,0,0,2.8,5.832Z" transform="translate(1.018 1.025)" fill="rgba(0,0,0,0)"/>
            <path id="Path_10_-_Outline" data-name="Path 10 - Outline" d="M7.382,8.7a1.02,1.02,0,0,1-.126-.008,9.993,9.993,0,0,1-3.411-1A9.011,9.011,0,0,1,2.178,6.652,8.1,8.1,0,0,1-.8,2.29,7.138,7.138,0,0,1-.986.173,1.023,1.023,0,0,1-.245-.749,6.675,6.675,0,0,1,1.573-1a7.364,7.364,0,0,1,3.511.914,6.455,6.455,0,0,1,2.77,2.541,6.479,6.479,0,0,1,.559,2.957c0,.065,0,.251-.007.631-.006.434-.018,1.314-.015,1.529a1.029,1.029,0,0,1-.258.789,1.015,1.015,0,0,1-.754.338ZM1.056,1.077a4.968,4.968,0,0,0,.119.729A6.119,6.119,0,0,0,3.462,5.061a7.174,7.174,0,0,0,1.295.792,7.436,7.436,0,0,0,1.612.6c0-.151,0-.3.006-.437,0-.264.008-.537.007-.585a4.742,4.742,0,0,0-.336-2.04A4.614,4.614,0,0,0,4.112,1.717a5.334,5.334,0,0,0-2.539-.668,4.759,4.759,0,0,0-.517.028Z" transform="translate(1 1)" fill="#c29c1f"/>
          </g>
        </g>
      </g>
      <g id="Group_20" data-name="Group 20" transform="translate(21.821 29.117)">
        <g id="Group_19" data-name="Group 19" transform="translate(0)">
          <g id="Group_18" data-name="Group 18">
            <path id="Path_11" data-name="Path 11" d="M4.58,5.832A8.031,8.031,0,0,1,3.1,6.744a9.027,9.027,0,0,1-3.081.9C.037,7.645,0,5.575,0,5.4A5.566,5.566,0,0,1,.448,2.9,5.413,5.413,0,0,1,2.8.79,6.105,6.105,0,0,1,7.37.212a6.111,6.111,0,0,1-.157,1.812A7.078,7.078,0,0,1,4.58,5.832Z" transform="translate(1.025 1.025)" fill="rgba(0,0,0,0)"/>
            <path id="Path_11_-_Outline" data-name="Path 11 - Outline" d="M.035,8.7A1.02,1.02,0,0,1-.973,7.8a1.032,1.032,0,0,1,0-.227c0-.214-.009-1.094-.015-1.529C-1,5.66-1,5.478-1,5.413A6.479,6.479,0,0,1-.441,2.455,6.455,6.455,0,0,1,2.333-.086,7.365,7.365,0,0,1,5.844-1a6.675,6.675,0,0,1,1.819.25A1.023,1.023,0,0,1,8.4.172a7.138,7.138,0,0,1-.183,2.117A8.1,8.1,0,0,1,5.239,6.651,9.012,9.012,0,0,1,3.573,7.685a9.992,9.992,0,0,1-3.411,1A1.021,1.021,0,0,1,.035,8.7ZM5.844,1.049A5.335,5.335,0,0,0,3.3,1.716,4.614,4.614,0,0,0,1.366,3.389,4.742,4.742,0,0,0,1.036,5.43c0,.047,0,.321.007.585,0,.136,0,.286.006.437a7.436,7.436,0,0,0,1.615-.6,7.175,7.175,0,0,0,1.295-.791A6.119,6.119,0,0,0,6.242,1.806a4.968,4.968,0,0,0,.119-.729,4.76,4.76,0,0,0-.517-.028Z" transform="translate(1.007 1)" fill="#c29c1f"/>
          </g>
        </g>
      </g>
      <g id="Group_23" data-name="Group 23" transform="translate(14.486 29.104)">
        <g id="Group_22" data-name="Group 22" transform="translate(0)">
          <g id="Group_21" data-name="Group 21">
            <path id="Path_12" data-name="Path 12" d="M2.8,5.832a8.031,8.031,0,0,0,1.481.912,9.027,9.027,0,0,0,3.081.9c-.018,0,.019-2.073.018-2.254a5.566,5.566,0,0,0-.448-2.5A5.413,5.413,0,0,0,4.58.79,6.105,6.105,0,0,0,.012.212,6.111,6.111,0,0,0,.168,2.023,7.078,7.078,0,0,0,2.8,5.832Z" transform="translate(1.018 1.025)" fill="rgba(0,0,0,0)"/>
            <path id="Path_12_-_Outline" data-name="Path 12 - Outline" d="M7.382,8.7a1.02,1.02,0,0,1-.126-.008,9.993,9.993,0,0,1-3.411-1A9.012,9.012,0,0,1,2.178,6.652,8.1,8.1,0,0,1-.8,2.29,7.137,7.137,0,0,1-.986.173,1.023,1.023,0,0,1-.245-.749,6.675,6.675,0,0,1,1.573-1a7.365,7.365,0,0,1,3.511.914,6.455,6.455,0,0,1,2.77,2.541,6.479,6.479,0,0,1,.559,2.957c0,.065,0,.251-.007.631-.006.434-.018,1.314-.015,1.528a1.029,1.029,0,0,1-.258.789,1.015,1.015,0,0,1-.754.338ZM1.056,1.077a4.968,4.968,0,0,0,.119.729A6.119,6.119,0,0,0,3.462,5.061a7.174,7.174,0,0,0,1.295.792,7.434,7.434,0,0,0,1.612.6c0-.151,0-.3.006-.437,0-.264.008-.537.007-.585a4.742,4.742,0,0,0-.336-2.041A4.614,4.614,0,0,0,4.112,1.716a5.334,5.334,0,0,0-2.539-.667,4.76,4.76,0,0,0-.517.028Z" transform="translate(1 1)" fill="#c29c1f"/>
          </g>
        </g>
      </g>
    </g>
  </g>
</svg>
