<svg xmlns="http://www.w3.org/2000/svg" width="14" height="14" viewBox="0 0 18 17.999">
    <path id="Path_4" data-name="Path 4" d="M17.751,11.968a2.835,2.835,0,0,1-.605-.109,8.508,8.508,0,0,1-1.183-.353,1.8,1.8,0,0,0-2.24.906l-.2.408a11,11,0,0,1-2.4-1.812A11.03,11.03,0,0,1,9.314,8.6l.379-.254A1.814,1.814,0,0,0,10.6,6.1a9.377,9.377,0,0,1-.352-1.187c-.045-.2-.081-.408-.108-.616A2.712,2.712,0,0,0,7.427,2.04H4.717a2.715,2.715,0,0,0-2.71,3.089,17.186,17.186,0,0,0,14.922,14.91h.343a2.707,2.707,0,0,0,2.71-2.727V14.595A2.715,2.715,0,0,0,17.751,11.968ZM18.2,17.4a.907.907,0,0,1-.307.679.947.947,0,0,1-.741.226A15.377,15.377,0,0,1,3.868,4.921a.989.989,0,0,1,.226-.743.9.9,0,0,1,.677-.308h2.71a.9.9,0,0,1,.9.716q.054.371.135.734a10.1,10.1,0,0,0,.415,1.4l-1.265.589a.907.907,0,0,0-.443,1.2,13.107,13.107,0,0,0,6.323,6.341.956.956,0,0,0,1.2-.471l.56-1.268a12.339,12.339,0,0,0,1.427.417q.361.082.732.136a.905.905,0,0,1,.714.906Z" transform="translate(-1.982 -2.04)" fill="#027335"/>
</svg>