<?xml version="1.0" encoding="utf-8"?>
<svg viewBox="407.0125 387.338 20.0031 7" xmlns="http://www.w3.org/2000/svg">
  <path fill="#000000" d="M 408.014 389.338 L 426.014 389.338 C 426.784 389.338 427.265 388.504 426.88 387.838 C 426.701 387.528 426.371 387.338 426.014 387.338 L 408.014 387.338 C 407.244 387.338 406.763 388.171 407.148 388.838 C 407.327 389.147 407.657 389.338 408.014 389.338 Z M 418.213 392.338 L 408.014 392.338 C 407.244 392.338 406.763 393.171 407.148 393.838 C 407.327 394.147 407.657 394.338 408.014 394.338 L 418.213 394.338 C 418.983 394.338 419.409 394.044 419.443 393.275 C 419.482 392.381 418.57 392.338 418.213 392.338 Z" transform="matrix(1, 0, 0, 1, 5.684341886080802e-14, 0)"/>
</svg>