<svg xmlns="http://www.w3.org/2000/svg" width="14" height="14" viewBox="0 0 18 17.999">
    <path id="Path_3" data-name="Path 3" d="M20.21,8.138h0L14,2.7a3.062,3.062,0,0,0-3.9,0L3.89,8.1h0A2.25,2.25,0,0,0,3,9.839v7.722A2.632,2.632,0,0,0,5.78,20H18.22A2.632,2.632,0,0,0,21,17.561V9.839a2.29,2.29,0,0,0-.79-1.7ZM11.44,4a.9.9,0,0,1,1.12,0L18,8.75,12.53,13.5a.9.9,0,0,1-1.12,0L6,8.75ZM19,17.561a.734.734,0,0,1-.78.639H5.78A.734.734,0,0,1,5,17.561V10.415l4.05,3.51-1.66,1.44c-.388.351-3.888,3.152-3.5,3.5a7.4,7.4,0,0,0,2,.132A27.4,27.4,0,0,0,8.8,16.661l1.77-1.53a3.068,3.068,0,0,0,2.92,0l1.77,1.53A24.333,24.333,0,0,0,18,18.868c.272,0,2.022.51,2.21.332.388-.351-3.152-3.484-3.54-3.835L15,13.925l4-3.51Z" transform="translate(-3 -2.001)" fill="#7c9834"/>
</svg>