<svg xmlns="http://www.w3.org/2000/svg" width="115.677" height="124.867" viewBox="0 0 115.677 124.867">
  <g id="Group_3" data-name="Group 3" transform="translate(-24.417 -35.44)">
    <g id="Group_2" data-name="Group 2" transform="translate(53.61 35.44)">
      <g id="Group_1" data-name="Group 1" transform="translate(1.958 17.166)">
        <circle id="Ellipse_1" data-name="Ellipse 1" cx="26.019" cy="26.019" r="26.019" fill="#a0616a"/>
        <path id="Path_1" data-name="Path 1" d="M199.288,324.694l5.424-13.861,28.024-4.219,3.011,30.683-28.325.6Z" transform="translate(-194.805 -266.828)" fill="#a0616a"/>
      </g>
      <path id="Path_2" data-name="Path 2" d="M232.161,165.6c-.338,1.353-1.02,4.574-2.086,4.59-.871.013-1.7-13.962-.835-16.273,1-2.656-1.627-6.015-3.605-7.739-3.557-3.1-11.453,3.557-19.481.541-.213-.08-.17-.071-2.706-1.082-7.8-3.113-8.211-3.2-8.658-3.247-3.782-.374-8.4,2.721-10.282,6.494-1.959,3.922-.322,7.286-2.165,16.776-.215,1.106-.552,2.682-1.082,2.706-.97.042-1.917-5.137-2.165-6.494-1.039-5.684-2.041-11.163,0-17.317.223-.671,1.594-3.162,4.329-8.117,3.94-7.138,5.921-10.72,6.494-11.364,4.107-4.618,11.582-8.831,17.858-7.035,3.172.908,2.6,2.368,6.494,3.788,6.933,2.531,12.959-.564,14.07,1.623.589,1.159-1.058,2.114-1.082,4.329-.041,3.8,4.765,4.9,7.576,8.658,1.511,2.021,4.1,2.043-2.673,29.163h0Z" transform="translate(-177.913 -117.613)" fill="#2f2e41"/>
    </g>
    <path id="Path_3" data-name="Path 3" d="M196.707,378.912q-1.573,1.767-3.263,3.459A80.171,80.171,0,0,1,86.52,388.154a.14.14,0,0,1-.024-.021q-2.825-2.278-5.466-4.839.05-.4.108-.787c.247-1.748.521-3.414.829-4.948,2.516-12.571,35.623-25.769,36.485-26.113l.018-.006s4.261,15.705,22.518,15.5c12.436-.136,10.025-15.5,10.025-15.5s.151.03.434.09c3.592.762,28.53,6.241,38.368,13.717,3,2.278,5.15,7.129,6.7,12.915.066.247.13.5.2.75Z" transform="translate(-56.613 -245.541)" fill="#f3f3ee"/>
  </g>
</svg>
