<svg xmlns="http://www.w3.org/2000/svg" width="321" height="321.689" viewBox="0 0 321 321.689">
  <path id="pCkEbIgwJ" d="M0,313.374V-1.757c104.141,0,121.123.242,121.912,0h13.344c-.425,18.3-.91,124.355-.91,124.355l-1.7,1.454a8.172,8.172,0,0,1-3.033,1.7c-.728.121-3.215.606-5.58.97a89.455,89.455,0,0,0-34.147,13.454c-4.61,3.091-14.071,11.878-14.071,13.09,0,1.394,11.342,11.757,16.861,15.393,9.583,6.363,23.23,12.363,32.874,14.423,4.549.97,7.4,2.424,8.309,4.242.607,1.151.788,9.285.788,37.95,0,29.15-.45,37.863.156,38.045,3.154.848,12.1,1.7,21.072,2,9.644.3,13.344.061,26.566-1.454l2.547-.3V227.38c0-22.847.243-36.967.607-38.361.849-3.03,2.729-4.363,8.006-5.575,16.983-4.06,34.511-13.332,45.065-23.817a58.132,58.132,0,0,0,5.155-5.636c.485-.848-.243-1.939-3.518-5.272-10.857-11.151-27.112-19.09-45-22-6.065-.97-7.46-1.576-8.673-3.576-.97-1.636-1.092-124.9-1.092-124.9H316V313.374c-100.8,0-129.675.688-130.4.869l-.607-38.018-2.851.424a140.358,140.358,0,0,1-26.869,1.394c-6.49-.242-13.526-.667-15.648-1.03a17.869,17.869,0,0,0-5-.3c-.364.242.025,37.534.025,37.534ZM121.79,287.86l-.182-14.06-6.672-2.3a125.173,125.173,0,0,1-21.228-9.757c-4-2.485-7.824-4.969-8.188-5.333-.182-.182-1.4-1.091-2.729-2.121-3.882-2.848-13.889-12.969-16.983-17.272C60.713,230.046,55.8,219.2,53.435,209.744c-1.334-5.454-1.88-10.787-1.88-19.453,0-13.029,1.759-21.453,6.732-32.6a23.156,23.156,0,0,0,1.759-4.727,20.427,20.427,0,0,0-1.759-4.3c-4.549-9.03-6.854-19.332-6.914-31.028-.061-12.06,1.941-21.029,6.975-31.513,4.61-9.454,13.465-20.3,22.623-27.574,1.7-1.333,3.154-2.606,3.336-2.788s2.79-2,5.823-4.06a174.677,174.677,0,0,1,25.6-13.514l6.187-2.545V9.758H12.131v292.1H121.912ZM303.87,155.809V9.758H198.334l.3,26.241,6.065,2.485c10.917,4.545,21.653,10.424,28.81,15.7,23.715,17.635,35.178,38.179,35.178,62.723,0,12.181-2.123,22.059-6.611,31.452l-2.426,5.03,2.426,5.151c7.157,15.514,8.613,35.634,3.882,53.936-4.852,18.968-19.166,36.967-38.818,48.906a128.324,128.324,0,0,1-20.2,9.575c-2.911,1.03-6,2.182-6.914,2.545l-1.7.606v27.756H303.87Zm-100.5,103.084c23.958-9.393,40.759-24.483,48.219-43.088,3.215-8,4-12.969,4-24.847.061-7.515-.182-12.3-.788-14.545-1.213-5.151-3.275-10.969-3.76-10.787-.243.121-2.365,2-4.731,4.242-11.645,11.09-27.718,19.938-45.065,24.786l-2.911.788v65.147l1.7-.545C200.942,259.8,202.4,259.256,203.368,258.893Zm-81.456-31.149v-32.3l-2.851-.788c-1.638-.424-4-1.212-5.337-1.7s-3.639-1.333-5.155-1.818c-4.185-1.394-14.375-6.424-20.015-9.878A78.238,78.238,0,0,1,73.208,169.2c-4.488-4.363-4.61-4.363-5.944-.061a69.635,69.635,0,0,0-2.972,14.969A65.322,65.322,0,0,0,82,236.47c8.916,9.272,22.32,17.878,35.542,22.6C122.336,260.832,121.912,263.923,121.912,227.743ZM72.419,137.992a69.928,69.928,0,0,1,5.641-5.03c1.274-.909,2.669-2.06,3.093-2.424.728-.727,7.1-4.485,11.039-6.606,7.218-3.879,19.227-8.06,25.353-8.727l4.064-.909c.243-53.512.121-64.541-.3-64.541-2,0-17.407,7.939-23.958,12.3C71.813,79.268,60.167,102.3,64.6,127.023c.91,5.394,3.579,14.241,4.246,14.241A43,43,0,0,0,72.419,137.992Zm179.532,2.242c1.334-3.818,1.7-4.969,2.244-6.848a102.067,102.067,0,0,0,2.365-16.423c0-12-5.459-26.847-13.647-36.907A158.726,158.726,0,0,0,231.39,68.542c-5.944-5.03-15.83-11.151-24.443-15.151-2.911-1.394-5.762-2.727-6.308-3.03a4.116,4.116,0,0,0-1.7-.606c-.97,0-.849,64.238.182,64.481.364.121,2.244.545,4.064.97,16.376,3.576,32.934,11.939,43.306,21.877a43.368,43.368,0,0,0,4.67,4.182C251.4,141.264,251.708,140.779,251.951,140.234Z" transform="translate(2.5 4.257)" stroke="#000" stroke-width="5"/>
</svg>
