l<svg xmlns="http://www.w3.org/2000/svg" width="128" height="128" viewBox="0 0 128 128">
  <g id="Group_1" data-name="Group 1" transform="translate(150 15)">
    <rect id="Rectangle_1" data-name="Rectangle 1" width="128" height="128" rx="5" transform="translate(-150 -15)"/>
    <path id="pCkEbIgwJ" d="M0,88V-1.757c29.66,0,34.5.069,34.722,0h3.8c-.121,5.212-.259,35.418-.259,35.418l-.484.414a2.328,2.328,0,0,1-.864.484c-.207.034-.916.173-1.589.276A25.478,25.478,0,0,0,25.6,38.667c-1.313.88-4.008,3.383-4.008,3.728,0,.4,3.23,3.349,4.8,4.384a31.032,31.032,0,0,0,9.363,4.108c1.3.276,2.108.69,2.366,1.208.173.328.224,2.644.224,10.809,0,8.3-.128,10.784.044,10.836a37.29,37.29,0,0,0,6,.57,41.209,41.209,0,0,0,7.566-.414l.725-.085V63.5c0-6.507.069-10.529.173-10.926.242-.863.777-1.243,2.28-1.588a28.823,28.823,0,0,0,12.835-6.783A16.556,16.556,0,0,0,69.443,42.6c.138-.242-.069-.552-1-1.5a23.228,23.228,0,0,0-12.816-6.266c-1.727-.276-2.125-.449-2.47-1.018-.276-.466-.311-35.573-.311-35.573H90V88c-28.709,0-36.933.2-37.139.247l-.173-10.828-.812.121a39.976,39.976,0,0,1-7.653.4c-1.848-.069-3.852-.19-4.457-.293a5.089,5.089,0,0,0-1.424-.085c-.1.069.007,10.69.007,10.69Zm34.687-7.267-.052-4-1.9-.655a35.65,35.65,0,0,1-6.046-2.779c-1.139-.708-2.228-1.415-2.332-1.519-.052-.052-.4-.311-.777-.6a35.287,35.287,0,0,1-4.837-4.919,24.408,24.408,0,0,1-3.524-7.768,21.937,21.937,0,0,1-.535-5.54A20.308,20.308,0,0,1,16.6,43.655a6.6,6.6,0,0,0,.5-1.346,5.818,5.818,0,0,0-.5-1.225,19.574,19.574,0,0,1-1.969-8.837,18.889,18.889,0,0,1,1.987-8.975,24.9,24.9,0,0,1,6.443-7.853c.484-.38.9-.742.95-.794s.795-.57,1.658-1.156a49.75,49.75,0,0,1,7.291-3.849l1.762-.725V1.523H3.455V84.716H34.722ZM86.545,43.119V1.523H56.488L56.573,9,58.3,9.7a41.808,41.808,0,0,1,8.205,4.472C73.26,19.2,76.525,25.049,76.525,32.04A19.98,19.98,0,0,1,74.642,41l-.691,1.433.691,1.467a23.652,23.652,0,0,1,1.106,15.362c-1.382,5.4-5.459,10.529-11.056,13.929a36.548,36.548,0,0,1-5.753,2.727c-.829.293-1.709.621-1.969.725l-.484.173v7.905h30.06ZM57.922,72.479C64.745,69.8,69.53,65.506,71.655,60.207a15.915,15.915,0,0,0,1.139-7.077,19.7,19.7,0,0,0-.224-4.143A10.282,10.282,0,0,0,71.5,45.915c-.069.034-.674.57-1.347,1.208a30.975,30.975,0,0,1-12.835,7.059l-.829.224V72.962l.484-.155c.259-.069.674-.224.95-.328Zm-23.2-8.872v-9.2l-.812-.224c-.467-.121-1.139-.345-1.52-.484s-1.036-.38-1.468-.518a39.15,39.15,0,0,1-5.7-2.813,22.283,22.283,0,0,1-4.371-3.435c-1.278-1.243-1.313-1.243-1.693-.017a19.832,19.832,0,0,0-.846,4.263,18.6,18.6,0,0,0,5.043,14.913,27.7,27.7,0,0,0,10.123,6.437c1.365.5,1.245,1.382,1.245-8.922Zm-14.1-25.562a19.916,19.916,0,0,1,1.607-1.433c.363-.259.76-.587.881-.69a33.312,33.312,0,0,1,3.144-1.881,25.51,25.51,0,0,1,7.221-2.486l1.157-.259c.069-15.241.034-18.382-.085-18.382-.57,0-4.958,2.261-6.823,3.5-7.273,4.9-10.59,11.462-9.328,18.5a14.985,14.985,0,0,0,1.209,4.056,12.247,12.247,0,0,0,1.018-.932Zm51.133.639c.38-1.087.484-1.415.639-1.95a29.069,29.069,0,0,0,.674-4.677,18.039,18.039,0,0,0-3.887-10.511A45.206,45.206,0,0,0,65.9,18.265a34.464,34.464,0,0,0-6.962-4.315c-.829-.4-1.641-.777-1.8-.863a1.172,1.172,0,0,0-.484-.173c-.276,0-.242,18.3.052,18.365.1.034.639.155,1.157.276A27.06,27.06,0,0,1,70.2,37.786a12.352,12.352,0,0,0,1.33,1.191c.068,0,.156-.138.225-.294Z" transform="translate(-130.5 5.757)" fill="#20808D" stroke="#20808D" stroke-width="2"/>
  </g>
</svg>
